<svg width="100" height="100" viewBox="0 0 100 100" xmlns="http://www.w3.org/2000/svg">
  <g fill="none" stroke="#d4a373" stroke-width="0.5" opacity="0.4">
    <!-- Lipstick -->
    <path d="M20 70 h10 v20 h-10 z M22 55 h6 v15 h-6 z M23 45 q0 -5 2 -5 t2 5 v10 h-4 z" />
    
    <!-- Perfume -->
    <path d="M60 65 h20 v25 h-20 z M65 60 h10 v5 h-10 z M68 55 h4 v5 h-4 z" />
    <circle cx="70" cy="70" r="2" />
    
    <!-- Jar -->
    <path d="M35 20 h30 v15 h-30 z M38 12 h24 v8 h-24 z" />
    <path d="M50 22 l2 5 l-2 5 l-2 -5 z" />
    
    <!-- Abstract sparkles/elements -->
    <circle cx="15" cy="15" r="1" />
    <circle cx="85" cy="40" r="1.5" />
    <path d="M10 50 l5 5 M90 80 l-5 -5" />
  </g>
</svg>
